<svg width="158" height="34" viewBox="0 0 158 34" fill="none" xmlns="http://www.w3.org/2000/svg">
<g clip-path="url(#clip0)">
<path d="M56.9021 7.34399V11.6416H51.6797V26.6832H46.3213V11.6416H41.1533V7.34399H56.9021Z" fill="#020059"/>
<path d="M66.3405 12.0496C67.2381 11.5056 68.2173 11.2336 69.2237 11.2336V16.9728H67.6733C66.4765 16.9728 65.5789 17.2176 64.9805 17.68C64.3821 18.1424 64.0829 18.9584 64.0829 20.1008V26.7104H58.6973V11.3696H64.0829V14.2256C64.6541 13.328 65.4157 12.5936 66.3405 12.0496Z" fill="#020059"/>
<path d="M79.4775 11.8864C80.2663 12.3488 80.8647 13.0016 81.2455 13.8176V11.3968H86.6039V26.7104H81.2455V24.2896C80.8647 25.1056 80.2663 25.7584 79.4775 26.2208C78.6887 26.6832 77.7639 26.928 76.6759 26.928C75.4519 26.928 74.3639 26.6016 73.3847 25.976C72.4055 25.3504 71.6167 24.4256 71.0727 23.256C70.5015 22.0592 70.2295 20.672 70.2295 19.0672C70.2295 17.4624 70.5015 16.0752 71.0727 14.8784C71.6439 13.7088 72.4055 12.784 73.3847 12.1584C74.3639 11.5328 75.4791 11.2064 76.6759 11.2064C77.7367 11.1792 78.6887 11.424 79.4775 11.8864ZM76.4039 16.7008C75.8871 17.2448 75.6151 18.0336 75.6151 19.0128C75.6151 20.0192 75.8871 20.7808 76.4039 21.352C76.9207 21.896 77.6007 22.1952 78.4439 22.1952C79.2327 22.1952 79.9127 21.9232 80.4295 21.352C80.9463 20.7808 81.2183 20.0192 81.2183 19.04C81.2183 18.088 80.9463 17.2992 80.4295 16.7552C79.9127 16.184 79.2327 15.912 78.4439 15.912C77.6007 15.8848 76.9207 16.1568 76.4039 16.7008Z" fill="#020059"/>
<path d="M103.903 13.0016C104.91 14.1712 105.399 15.776 105.399 17.7888V26.6832H100.095V18.4688C100.095 17.5712 99.8506 16.8912 99.3882 16.3744C98.9258 15.8848 98.3003 15.6128 97.5114 15.6128C96.7226 15.6128 96.0698 15.8848 95.6074 16.4016C95.145 16.9184 94.9002 17.6256 94.9002 18.5504V26.6832H89.5146V11.3696H94.9002V13.9264C95.3354 13.1104 95.961 12.4576 96.8042 11.968C97.6474 11.4784 98.6267 11.2336 99.7419 11.2336C101.537 11.2336 102.897 11.832 103.903 13.0016Z" fill="#020059"/>
<path d="M118.918 12.648C120.115 13.6272 120.877 14.9328 121.176 16.5376H116.144C116.008 15.9936 115.763 15.5856 115.355 15.3136C114.974 15.0416 114.485 14.9056 113.914 14.9056C113.506 14.9056 113.206 14.9872 112.989 15.1776C112.771 15.3408 112.662 15.5856 112.662 15.912C112.662 16.2928 112.88 16.592 113.342 16.7824C113.778 16.9728 114.512 17.1904 115.546 17.4352C116.715 17.68 117.694 17.952 118.483 18.2512C119.245 18.5504 119.925 19.0128 120.496 19.6656C121.067 20.3184 121.366 21.216 121.366 22.304C121.366 23.2016 121.122 23.9904 120.632 24.6704C120.142 25.3504 119.435 25.8944 118.483 26.3024C117.558 26.6832 116.443 26.9008 115.165 26.9008C113.016 26.9008 111.302 26.4384 110.024 25.5136C108.746 24.5888 107.984 23.256 107.712 21.5424H112.88C112.962 22.1136 113.206 22.5216 113.614 22.7936C114.022 23.0656 114.539 23.2016 115.165 23.2016C115.573 23.2016 115.899 23.12 116.117 22.9296C116.334 22.7392 116.443 22.5216 116.443 22.2224C116.443 21.7872 116.198 21.4608 115.736 21.2704C115.274 21.08 114.539 20.8624 113.506 20.672C112.336 20.4272 111.384 20.1824 110.65 19.8832C109.915 19.6112 109.262 19.1488 108.691 18.5232C108.147 17.8976 107.848 17.0272 107.848 15.912C107.848 14.5248 108.392 13.4096 109.453 12.5392C110.514 11.6688 112.064 11.2336 114.05 11.2336C116.117 11.1792 117.722 11.6688 118.918 12.648Z" fill="#020059"/>
<path d="M135.727 12.8384C137.06 13.9264 137.931 15.4768 138.257 17.408H132.572C132.436 16.8912 132.219 16.4832 131.865 16.184C131.539 15.912 131.103 15.7488 130.559 15.7488C129.907 15.7488 129.363 16.0208 128.955 16.592C128.547 17.136 128.329 17.952 128.329 19.0128C128.329 20.0736 128.547 20.8896 128.955 21.4336C129.363 21.9776 129.907 22.2496 130.559 22.2496C131.076 22.2496 131.511 22.1136 131.865 21.8144C132.191 21.5424 132.436 21.1344 132.572 20.5904H138.257C137.903 22.5488 137.06 24.072 135.727 25.1872C134.367 26.3024 132.708 26.8464 130.723 26.8464C129.199 26.8464 127.839 26.52 126.67 25.8944C125.5 25.2688 124.575 24.344 123.923 23.1744C123.27 21.9776 122.943 20.5904 122.943 18.9856C122.943 17.3808 123.27 15.9936 123.923 14.7968C124.575 13.6272 125.5 12.7024 126.67 12.0768C127.839 11.4512 129.199 11.1248 130.723 11.1248C132.708 11.1792 134.395 11.7232 135.727 12.8384Z" fill="#F92B4E"/>
<path d="M144.757 11.3696L148.021 19.9376L151.041 11.3696H156.997L147.341 34H141.439L145.165 26.0304L138.773 11.3696H144.757V11.3696Z" fill="#F92B4E"/>
<path d="M20.0736 12.8384C19.6928 12.4576 19.2576 12.104 18.7952 11.8048C17.5712 11.016 16.1296 10.5808 14.6608 10.5808C12.6208 10.5808 10.6624 11.3968 9.2208 12.8384L2.2576 19.8016C0.816 21.2432 0 23.2016 0 25.2144C0 29.4576 3.4272 32.912 7.6704 32.912C9.7104 32.912 11.6688 32.1232 13.0832 30.6816L18.8496 24.9152C18.9584 24.8064 19.0128 24.6704 19.0128 24.5344C19.0128 24.2352 18.768 23.9904 18.4688 23.9904H18.2512C17.0544 23.9904 15.8576 23.7728 14.7424 23.3104C14.5248 23.2288 14.3072 23.2832 14.144 23.4192L10.0096 27.5536C8.7312 28.832 6.6368 28.832 5.3584 27.5536C4.08 26.2752 4.08 24.1808 5.3584 22.9024L12.3488 15.912C13.6272 14.6336 15.7216 14.6336 17 15.912C17.8704 16.728 19.2032 16.728 20.0736 15.912C20.4544 15.5312 20.672 15.0416 20.6992 14.5248C20.7536 13.8992 20.536 13.2736 20.0736 12.8384Z" fill="#020059"/>
<path d="M30.6548 2.25761C27.6628 -0.734389 22.794 -0.734389 19.802 2.25761L14.0356 7.99681C13.8724 8.16001 13.8452 8.40481 13.9268 8.59521C14.0084 8.81281 14.226 8.92161 14.4436 8.92161H14.634C15.8308 8.92161 17.0276 9.13921 18.1428 9.60161C18.3604 9.68321 18.578 9.62881 18.7412 9.49281L22.8756 5.35841C24.154 4.08001 26.2484 4.08001 27.5268 5.35841C28.8052 6.63681 28.8052 8.73121 27.5268 10.0096L22.386 15.1776L22.3588 15.232L20.5636 17.0272C19.2852 18.3056 17.1908 18.3056 15.9124 17.0272C15.042 16.2112 13.7092 16.2112 12.8388 17.0272C12.458 17.408 12.2404 17.8976 12.2132 18.4416C12.186 19.0672 12.4036 19.6928 12.8388 20.128C13.4644 20.7536 14.226 21.2976 15.042 21.6512C15.1508 21.7056 15.2596 21.76 15.3956 21.7872C15.5044 21.8416 15.6404 21.8688 15.7492 21.9232C15.858 21.9776 15.994 22.0048 16.1028 22.032L16.4292 22.1136C16.6468 22.168 16.8644 22.2224 17.082 22.2496C17.354 22.2768 17.626 22.304 17.898 22.3312H18.2788H18.306L18.6324 22.304C18.7412 22.304 18.8772 22.2768 19.0132 22.2768H19.2036L19.5844 22.2224L19.7476 22.1952L20.074 22.1408H20.1284C21.4884 21.8144 22.7124 21.1072 23.6916 20.128L30.682 13.1376C33.6468 10.1184 33.6468 5.24961 30.6548 2.25761Z" fill="#F92B4E"/>
<path d="M20.0736 20.0736C20.4544 19.6928 20.808 19.2576 21.1072 18.7952C21.896 17.5712 22.3312 16.1296 22.3312 14.6608C22.3312 12.6208 21.5152 10.6624 20.0736 9.2208L13.1104 2.2576C11.6688 0.816 9.7104 0 7.6704 0C3.4544 0 0 3.4272 0 7.6704C0 9.7104 0.7888 11.6688 2.2304 13.0832L7.9968 18.8496C8.1056 18.9584 8.2416 19.0128 8.3776 19.0128C8.6768 19.0128 8.9216 18.768 8.9216 18.4688V18.2512C8.9216 17.0544 9.1392 15.8576 9.6016 14.7424C9.6832 14.5248 9.6288 14.3072 9.4928 14.144L5.3584 10.0096C4.08 8.7312 4.08 6.6368 5.3584 5.3584C6.6368 4.08 8.7312 4.08 10.0096 5.3584L17 12.3488C18.2784 13.6272 18.2784 15.7216 17 17C16.184 17.8704 16.184 19.2032 17 20.0736C17.3808 20.4544 17.8704 20.672 18.3872 20.6992C19.0128 20.7536 19.6384 20.536 20.0736 20.0736Z" fill="#020059"/>
<path d="M30.6537 30.6544C33.6457 27.6624 33.6457 22.7936 30.6537 19.8016L24.9145 14.0352C24.7513 13.872 24.5065 13.8448 24.3161 13.9264C24.0985 14.008 23.9897 14.2256 23.9897 14.4432V14.6336C23.9897 15.8304 23.7721 17.0272 23.3097 18.1424C23.2281 18.36 23.2825 18.5776 23.4185 18.7408L27.5529 22.8752C28.8313 24.1536 28.8313 26.248 27.5529 27.5264C26.2745 28.8048 24.1801 28.8048 22.9017 27.5264L17.7337 22.3856L17.6793 22.3584L15.8841 20.5632C14.6057 19.2848 14.6057 17.1904 15.8841 15.912C16.7001 15.0416 16.7001 13.7088 15.8841 12.8384C15.5033 12.4576 15.0137 12.24 14.4697 12.2128C13.8441 12.1856 13.2185 12.4032 12.7833 12.8384C12.1577 13.464 11.6137 14.2256 11.2601 15.0416C11.2057 15.1504 11.1513 15.2592 11.1241 15.3952C11.0697 15.504 11.0425 15.64 10.9881 15.7488C10.9337 15.8576 10.9065 15.9392 10.8793 16.048L10.7977 16.3744C10.7433 16.592 10.6889 16.8096 10.6617 17.0272C10.6345 17.2992 10.6073 17.5712 10.5801 17.8432V18.224V18.2512L10.6073 18.5776C10.6073 18.6864 10.6345 18.8224 10.6345 18.9584V19.1488L10.6889 19.5296L10.7161 19.6928L10.7705 20.0192V20.128C11.0969 21.488 11.8041 22.712 12.7833 23.6912L19.7737 30.6816C22.7929 33.6464 27.6617 33.6464 30.6537 30.6544Z" fill="#F92B4E"/>
</g>
<defs>
<clipPath id="clip0">
<rect width="157.026" height="34" fill="white"/>
</clipPath>
</defs>
</svg>
